<svg version="1.2" baseProfile="tiny-ps" xmlns="http://www.w3.org/2000/svg" viewBox="0 0 50 50" width="50" height="50">
	<title>fox-svgrepo-com(1)-svg</title>
	<style>
		tspan { white-space:pre }
		.s0 { fill: #ffa54b } 
		.s1 { fill: #ffcd9b } 
		.s2 { fill: #464655 } 
		.s3 { fill: #ff8c46 } 
		.s4 { fill: #ffdeb7 } 
		.s5 { fill: #000000 } 
	</style>
	<path id="Layer" class="s0" d="m42.19 37.5l0.78 2.34c0 0-8.59 2.51-12.44 5.82l-0.2-0.09c-0.64 0.71-1.59 0.74-2.49 1.1c-0.74 0.3-1.86-0.68-2.73-0.68c-0.89 0-2.48 1.18-3.22 0.88c-0.99-0.41-1.86-0.78-2.32-1.25l-0.08 0.04c-3.85-3.31-12.44-5.82-12.44-5.82l0.78-2.34c-0.98-0.46-3.91 0-3.91 0c0 0 1.63-7.29 6.25-12.5c0.7-0.79-2.73-24.22-0.78-24.22c3.03 0 6.64 8.4 12.5 13.28l-0.06 0.79c0.92-0.56 2.05-0.88 3.28-0.88c1.14 0 2.2 0.28 3.08 0.77l-0.05-0.67c5.86-4.88 9.47-13.28 12.5-13.28c1.95 0-1.48 23.43-0.78 24.22c4.62 5.21 6.25 12.5 6.25 12.5c0 0-2.93-0.46-3.91 0z" />
	<path id="Layer" class="s1" d="m28.32 46.48c0 1.51-1.49 2.73-3.32 2.73c-1.83 0-3.32-1.22-3.32-2.73h6.64z" />
	<path id="Layer" class="s2" d="m27.34 42.19c0 1.29-2.34 2.34-2.34 2.34c0 0-2.34-1.05-2.34-2.34c0-1.29 1.05-2.34 2.34-2.34c1.29 0 2.34 1.05 2.34 2.34z" />
	<g id="Layer">
		<path id="Layer" class="s3" d="m9.38 1.56c1.17 2.08 7.81 14.84 7.81 14.84l-3.91-0.78c0 0 1.56 2.73 1.56 3.91c0 1.51-1.56 2.34-1.56 2.34" />
		<path id="Layer" class="s3" d="m36.72 21.88c0 0-1.56-0.83-1.56-2.34c0-1.17 1.56-3.91 1.56-3.91l-3.91 0.78c0 0 6.64-12.76 7.81-14.84" />
	</g>
	<g id="Layer">
		<path id="Layer" class="s4" d="m34.67 35.74c6.22-3.75 11.13 1.56 11.13 1.56l-3.32 0.31l0.2 2.23c-1.56 0.98-6.63 2.25-8.84 3.5c-2.1 1.19-5.08 4.8-8.84 2.75c0 0 4-6.93 9.67-10.35z" />
		<path id="Layer" class="s4" d="m24.9 46.19c-3.76 2.05-6.74-1.56-8.84-2.75c-2.21-1.25-7.28-2.52-8.84-3.5l0.2-2.23l-3.32-0.31c0 0 4.91-5.32 11.13-1.56c5.66 3.42 9.67 10.35 9.67 10.35z" />
	</g>
	<path id="Layer" class="s5" d="m20.31 31.25c0 0.86-0.7 1.56-1.56 1.56c-0.86 0-1.56-0.7-1.56-1.56c0-0.86 0.7-1.56 1.56-1.56c0.86 0 1.56 0.7 1.56 1.56z" />
	<path id="Layer" class="s5" d="m32.81 31.25c0 0.86-0.7 1.56-1.56 1.56c-0.86 0-1.56-0.7-1.56-1.56c0-0.86 0.7-1.56 1.56-1.56c0.86 0 1.56 0.7 1.56 1.56z" />
	<path id="Layer" fill-rule="evenodd" class="s5" d="m46.66 38.03c0 0 0 0 0 0c0 0 0 0-0.01 0.01c-0.02 0.02-0.03 0.03-0.05 0.05c0 0-0.01 0.01-0.01 0.01c-0.01 0-0.01 0.01-0.02 0.01c-0.02 0.01-0.04 0.03-0.05 0.04c-0.01 0-0.01 0.01-0.02 0.01c-0.05 0.03-0.1 0.06-0.16 0.08c0 0-0.01 0-0.01 0c-0.02 0.01-0.05 0.01-0.07 0.02c-0.01 0-0.01 0-0.02 0c-0.05 0.01-0.1 0.02-0.15 0.02c0 0-0.01 0-0.01 0c-0.01 0-0.02 0-0.03 0c-0.02 0-0.04 0-0.06-0.01c-0.01 0-0.01 0-0.02 0c-0.92-0.14-2.03-0.23-2.77-0.19l0.5 1.51c0.07 0.2 0.05 0.42-0.05 0.61c-0.1 0.19-0.27 0.33-0.47 0.39c-0.08 0.02-8.42 2.49-12.12 5.63c-0.29 0.29-0.6 0.54-0.95 0.74c-0.4 0.24-0.83 0.41-1.29 0.52c-0.36 1.43-1.94 2.51-3.83 2.51c-1.89 0-3.47-1.08-3.83-2.51c-0.45-0.11-0.88-0.28-1.29-0.52c-0.35-0.21-0.67-0.46-0.95-0.74c-3.7-3.14-12.03-5.61-12.12-5.63c-0.2-0.06-0.37-0.2-0.47-0.39c-0.1-0.19-0.12-0.41-0.05-0.61l0.5-1.51c-0.74-0.04-1.85 0.04-2.76 0.18c-0.01 0-0.01 0-0.02 0c-0.02 0-0.04 0-0.06 0.01c-0.01 0-0.02 0-0.03 0c0 0-0.01 0-0.01 0c-0.02 0-0.04 0-0.07 0c0 0 0 0 0 0c-0.03 0-0.06-0.01-0.08-0.01c-0.01 0-0.01 0-0.02 0c-0.02-0.01-0.05-0.01-0.07-0.02c-0.01 0-0.01 0-0.02 0c-0.03-0.01-0.05-0.02-0.08-0.03c0 0 0 0 0 0c-0.02-0.01-0.05-0.03-0.07-0.04c-0.01 0-0.01-0.01-0.02-0.01c-0.02-0.01-0.03-0.02-0.05-0.04c-0.01-0.01-0.01-0.01-0.02-0.02c0 0-0.01-0.01-0.01-0.01c-0.02-0.01-0.03-0.03-0.04-0.04c0 0-0.01-0.01-0.01-0.01c0 0 0 0 0 0c-0.02-0.02-0.04-0.05-0.06-0.07c0 0-0.01-0.01-0.01-0.01c-0.01-0.02-0.03-0.04-0.04-0.06c0-0.01-0.01-0.01-0.01-0.02c-0.01-0.02-0.02-0.04-0.03-0.06c0-0.01-0.01-0.01-0.01-0.02c-0.01-0.02-0.02-0.05-0.02-0.07c0 0 0-0.01 0-0.01c-0.01-0.03-0.01-0.06-0.02-0.09c0-0.01 0-0.01 0-0.02c0-0.02 0-0.04-0.01-0.07c0-0.01 0-0.02 0-0.03c0-0.02 0-0.04 0-0.06c0-0.01 0-0.02 0-0.03c0-0.03 0.01-0.06 0.01-0.09c0 0 0 0 0-0.01c0.08-0.38 1.72-7.46 6.31-12.71c0.09-0.85-0.26-4.59-0.57-7.91c-0.31-3.28-0.66-6.99-0.82-10c-0.27-5.03 0.13-5.91 0.53-6.35c0.21-0.23 0.48-0.35 0.78-0.35c2.02 0 3.8 2.41 6.27 5.74c1.88 2.54 4.02 5.42 6.6 7.61c0.76-0.11 1.73-0.17 2.76-0.17c1.03 0 1.99 0.06 2.76 0.17c2.58-2.19 4.71-5.06 6.59-7.61c2.47-3.33 4.25-5.74 6.27-5.74c0.29 0 0.57 0.13 0.78 0.35c0.39 0.43 0.79 1.31 0.53 6.35c-0.16 3.01-0.51 6.72-0.82 10c-0.31 3.32-0.66 7.07-0.57 7.91c4.59 5.26 6.23 12.34 6.31 12.71c0 0 0 0 0 0.01c0.01 0.03 0.01 0.06 0.01 0.09c0 0.01 0 0.02 0 0.03c0 0.02 0 0.04 0 0.06c0 0.01 0 0.02 0 0.03c0 0.02 0 0.04-0.01 0.07c0 0.01 0 0.01 0 0.02c0 0.03-0.01 0.06-0.02 0.09c0 0 0 0.01 0 0.01c-0.01 0.02-0.02 0.05-0.02 0.07c0 0.01-0.01 0.01-0.01 0.02c-0.01 0.02-0.02 0.04-0.03 0.06c0 0.01-0.01 0.01-0.01 0.02c-0.01 0.02-0.03 0.04-0.04 0.06c0 0-0.01 0.01-0.01 0.01c-0.02 0.02-0.04 0.05-0.06 0.07zm-19.59 9.55c-0.68-0.08-1.38-0.28-2.08-0.61c-0.7 0.33-1.4 0.54-2.08 0.61c0.4 0.5 1.19 0.85 2.08 0.85c0.89 0 1.68-0.35 2.08-0.85zm16.66-11.07c-2.49-1.56-5.32-1.51-6.09-1.37c-0.42 0.08-0.83-0.2-0.91-0.63c-0.08-0.42 0.2-0.83 0.63-0.91c1.13-0.21 4.38-0.2 7.25 1.61c-0.86-2.53-2.54-6.54-5.35-9.7c-0.42-0.47-0.44-1.18 0.3-8.97c0.3-3.17 0.64-6.75 0.8-9.68c0.08-1.47 0.1-2.55 0.1-3.34c-1.63 3.05-4.76 9.04-6.19 11.8l2.31-0.46c0.3-0.06 0.61 0.06 0.79 0.31c0.18 0.25 0.2 0.58 0.04 0.84c-0.61 1.06-1.46 2.85-1.46 3.52c0 1.02 1.14 1.65 1.15 1.65c0.38 0.2 0.53 0.68 0.32 1.06c-0.14 0.26-0.41 0.41-0.69 0.41c-0.12 0-0.25-0.03-0.37-0.09c-0.08-0.04-1.98-1.07-1.98-3.03c0-0.75 0.46-1.89 0.9-2.82l-2.31 0.46c-0.29 0.06-0.6-0.06-0.78-0.3c-0.18-0.24-0.21-0.56-0.07-0.83c0.24-0.47 5.41-10.4 7.31-13.93c-1.1 0.88-2.44 2.68-3.83 4.56c-1.97 2.66-4.2 5.67-6.98 7.99c-0.1 0.08-0.2 0.13-0.32 0.16c-0.12 0.08-0.26 0.12-0.41 0.12c-0.04 0-0.09 0-0.13-0.01c-0.71-0.12-1.71-0.18-2.76-0.18c-1.05 0-2.06 0.07-2.76 0.18c-0.2 0.03-0.39-0.01-0.54-0.11c-0.11-0.03-0.22-0.08-0.32-0.16c-2.78-2.32-5.01-5.33-6.98-7.99c-1.39-1.88-2.73-3.68-3.83-4.56c1.9 3.53 7.07 13.46 7.31 13.93c0.14 0.27 0.11 0.59-0.07 0.83c-0.18 0.24-0.48 0.36-0.78 0.3l-2.31-0.46c0.44 0.93 0.9 2.07 0.9 2.82c0 1.96-1.9 2.99-1.98 3.03c-0.12 0.06-0.24 0.09-0.37 0.09c-0.28 0-0.55-0.15-0.69-0.41c-0.2-0.38-0.06-0.85 0.32-1.06c0.01 0 1.15-0.64 1.15-1.65c0-0.67-0.85-2.46-1.46-3.52c-0.15-0.27-0.13-0.6 0.04-0.84c0.18-0.25 0.49-0.37 0.79-0.31l2.31 0.46c-1.44-2.76-4.57-8.75-6.19-11.8c-0.01 0.79 0.02 1.87 0.1 3.34c0.16 2.93 0.5 6.52 0.8 9.68c0.73 7.79 0.72 8.5 0.3 8.97c-2.81 3.17-4.49 7.17-5.35 9.7c2.86-1.82 6.12-1.82 7.25-1.61c0.42 0.08 0.71 0.48 0.63 0.91c-0.08 0.42-0.48 0.71-0.91 0.63c-0.78-0.14-3.61-0.19-6.09 1.37c0.72 0 1.43 0.06 1.88 0.28c0.36 0.17 0.53 0.58 0.41 0.95l-0.53 1.59c1.73 0.55 6 2 9.36 3.95c-0.13-0.58-0.2-1.21-0.2-1.87c0-1.63-0.34-3.79-1.98-4.81c-0.37-0.23-0.48-0.71-0.25-1.08c0.23-0.37 0.71-0.48 1.08-0.25c1.77 1.11 2.71 3.23 2.71 6.13c0 1.57 0.46 2.88 1.28 3.7c0.01 0.01 0.02 0.02 0.03 0.03c0.19 0.19 0.4 0.35 0.63 0.49c0.99 0.59 2.23 0.58 3.54-0.02v-0.59c-0.84-0.45-2.34-1.45-2.34-2.83c0-1.72 1.4-3.13 3.13-3.13c1.72 0 3.13 1.4 3.13 3.13c0 1.38-1.51 2.38-2.34 2.83v0.59c1.3 0.59 2.55 0.61 3.54 0.02c0.23-0.14 0.44-0.3 0.63-0.49c0.01-0.01 0.02-0.02 0.03-0.03c0.82-0.83 1.28-2.13 1.28-3.7c0-2.9 0.94-5.02 2.71-6.13c0.37-0.23 0.85-0.12 1.08 0.25c0.23 0.37 0.12 0.85-0.25 1.08c-1.63 1.02-1.98 3.18-1.98 4.81c0 0.66-0.07 1.29-0.2 1.87c3.36-1.94 7.63-3.4 9.36-3.95l-0.53-1.59c-0.12-0.37 0.05-0.78 0.41-0.95c0.46-0.22 1.16-0.28 1.88-0.28zm-17.17 5.67c0-0.86-0.7-1.56-1.56-1.56c-0.86 0-1.56 0.7-1.56 1.56c0 0.44 0.84 1.09 1.56 1.47c0.79-0.42 1.56-1.07 1.56-1.47z" />
	<g id="Layer">
	</g>
	<g id="Layer">
	</g>
	<g id="Layer">
	</g>
	<g id="Layer">
	</g>
	<g id="Layer">
	</g>
	<g id="Layer">
	</g>
	<g id="Layer">
	</g>
	<g id="Layer">
	</g>
	<g id="Layer">
	</g>
	<g id="Layer">
	</g>
	<g id="Layer">
	</g>
	<g id="Layer">
	</g>
	<g id="Layer">
	</g>
	<g id="Layer">
	</g>
	<g id="Layer">
	</g>
</svg>